<svg width="60" height="60" viewBox="0 0 60 60" fill="none" xmlns="http://www.w3.org/2000/svg">
<path d="M60 30C60 46.5685 46.5685 60 30 60C13.4315 60 0 46.5685 0 30C0 13.4315 13.4315 0 30 0C46.5685 0 60 13.4315 60 30Z" fill="#F72C2C"/>
<path fill-rule="evenodd" clip-rule="evenodd" d="M41.4142 18.5858C42.1953 19.3668 42.1953 20.6332 41.4142 21.4142L21.4142 41.4142C20.6332 42.1953 19.3668 42.1953 18.5858 41.4142C17.8047 40.6332 17.8047 39.3668 18.5858 38.5858L38.5858 18.5858C39.3668 17.8047 40.6332 17.8047 41.4142 18.5858Z" fill="white"/>
<path fill-rule="evenodd" clip-rule="evenodd" d="M18.5858 18.5858C19.3668 17.8047 20.6332 17.8047 21.4142 18.5858L41.4142 38.5858C42.1953 39.3668 42.1953 40.6332 41.4142 41.4142C40.6332 42.1953 39.3668 42.1953 38.5858 41.4142L18.5858 21.4142C17.8047 20.6332 17.8047 19.3668 18.5858 18.5858Z" fill="white"/>
</svg>
